G04 #@! TF.GenerationSoftware,KiCad,Pcbnew,5.1.12-84ad8e8a86~92~ubuntu20.04.1*
G04 #@! TF.CreationDate,2022-05-17T18:41:04-04:00*
G04 #@! TF.ProjectId,fm1608-to-6116,666d3136-3038-42d7-946f-2d363131362e,1.0*
G04 #@! TF.SameCoordinates,Original*
G04 #@! TF.FileFunction,Copper,L2,Bot*
G04 #@! TF.FilePolarity,Positive*
%FSLAX46Y46*%
G04 Gerber Fmt 4.6, Leading zero omitted, Abs format (unit mm)*
G04 Created by KiCad (PCBNEW 5.1.12-84ad8e8a86~92~ubuntu20.04.1) date 2022-05-17 18:41:04*
%MOMM*%
%LPD*%
G01*
G04 APERTURE LIST*
G04 #@! TA.AperFunction,ComponentPad*
%ADD10O,1.600000X1.600000*%
G04 #@! TD*
G04 #@! TA.AperFunction,ComponentPad*
%ADD11R,1.600000X1.600000*%
G04 #@! TD*
G04 #@! TA.AperFunction,Conductor*
%ADD12C,0.500000*%
G04 #@! TD*
G04 APERTURE END LIST*
D10*
X144780000Y-73596500D03*
X129540000Y-106616500D03*
X144780000Y-76136500D03*
X129540000Y-104076500D03*
X144780000Y-78676500D03*
X129540000Y-101536500D03*
X144780000Y-81216500D03*
X129540000Y-98996500D03*
X144780000Y-83756500D03*
X129540000Y-96456500D03*
X144780000Y-86296500D03*
X129540000Y-93916500D03*
X144780000Y-88836500D03*
X129540000Y-91376500D03*
X144780000Y-91376500D03*
X129540000Y-88836500D03*
X144780000Y-93916500D03*
X129540000Y-86296500D03*
X144780000Y-96456500D03*
X129540000Y-83756500D03*
X144780000Y-98996500D03*
X129540000Y-81216500D03*
X144780000Y-101536500D03*
X129540000Y-78676500D03*
X144780000Y-104076500D03*
X129540000Y-76136500D03*
X144780000Y-106616500D03*
D11*
X129540000Y-73596500D03*
D10*
X148907500Y-76263500D03*
X133667500Y-104203500D03*
X148907500Y-78803500D03*
X133667500Y-101663500D03*
X148907500Y-81343500D03*
X133667500Y-99123500D03*
X148907500Y-83883500D03*
X133667500Y-96583500D03*
X148907500Y-86423500D03*
X133667500Y-94043500D03*
X148907500Y-88963500D03*
X133667500Y-91503500D03*
X148907500Y-91503500D03*
X133667500Y-88963500D03*
X148907500Y-94043500D03*
X133667500Y-86423500D03*
X148907500Y-96583500D03*
X133667500Y-83883500D03*
X148907500Y-99123500D03*
X133667500Y-81343500D03*
X148907500Y-101663500D03*
X133667500Y-78803500D03*
X148907500Y-104203500D03*
D11*
X133667500Y-76263500D03*
D12*
X131254500Y-106616500D02*
X133667500Y-104203500D01*
X129540000Y-106616500D02*
X131254500Y-106616500D01*
X146240500Y-73596500D02*
X148907500Y-76263500D01*
X144780000Y-73596500D02*
X146240500Y-73596500D01*
X146494500Y-93916500D02*
X148907500Y-91503500D01*
X144780000Y-93916500D02*
X146494500Y-93916500D01*
X146494500Y-81216500D02*
X148907500Y-78803500D01*
X144780000Y-81216500D02*
X146494500Y-81216500D01*
X131254500Y-104076500D02*
X133667500Y-101663500D01*
X129540000Y-104076500D02*
X131254500Y-104076500D01*
X146494500Y-83756500D02*
X148907500Y-81343500D01*
X144780000Y-83756500D02*
X146494500Y-83756500D01*
X131254500Y-101536500D02*
X133667500Y-99123500D01*
X129540000Y-101536500D02*
X131254500Y-101536500D01*
X142875000Y-78041500D02*
X142875000Y-84201000D01*
X144780000Y-76136500D02*
X142875000Y-78041500D01*
X143680501Y-85006501D02*
X142875000Y-84201000D01*
X147784499Y-85006501D02*
X143680501Y-85006501D01*
X148907500Y-83883500D02*
X147784499Y-85006501D01*
X131254500Y-98996500D02*
X133667500Y-96583500D01*
X129540000Y-98996500D02*
X131254500Y-98996500D01*
X146494500Y-88836500D02*
X148907500Y-86423500D01*
X144780000Y-88836500D02*
X146494500Y-88836500D01*
X131254500Y-96456500D02*
X133667500Y-94043500D01*
X129540000Y-96456500D02*
X131254500Y-96456500D01*
X146494500Y-91376500D02*
X148907500Y-88963500D01*
X144780000Y-91376500D02*
X146494500Y-91376500D01*
X131254500Y-93916500D02*
X133667500Y-91503500D01*
X129540000Y-93916500D02*
X131254500Y-93916500D01*
X131254500Y-91376500D02*
X133667500Y-88963500D01*
X129540000Y-91376500D02*
X131254500Y-91376500D01*
X146494500Y-96456500D02*
X148907500Y-94043500D01*
X144780000Y-96456500D02*
X146494500Y-96456500D01*
X131254500Y-88836500D02*
X133667500Y-86423500D01*
X129540000Y-88836500D02*
X131254500Y-88836500D01*
X146494500Y-98996500D02*
X148907500Y-96583500D01*
X144780000Y-98996500D02*
X146494500Y-98996500D01*
X131254500Y-86296500D02*
X133667500Y-83883500D01*
X129540000Y-86296500D02*
X131254500Y-86296500D01*
X146494500Y-101536500D02*
X148907500Y-99123500D01*
X144780000Y-101536500D02*
X146494500Y-101536500D01*
X131254500Y-83756500D02*
X133667500Y-81343500D01*
X129540000Y-83756500D02*
X131254500Y-83756500D01*
X146494500Y-104076500D02*
X148907500Y-101663500D01*
X144780000Y-104076500D02*
X146494500Y-104076500D01*
X131254500Y-81216500D02*
X133667500Y-78803500D01*
X129540000Y-81216500D02*
X131254500Y-81216500D01*
X146494500Y-106616500D02*
X148907500Y-104203500D01*
X144780000Y-106616500D02*
X146494500Y-106616500D01*
X131254500Y-78676500D02*
X133667500Y-76263500D01*
X129540000Y-78676500D02*
X131254500Y-78676500D01*
M02*
