G04 #@! TF.GenerationSoftware,KiCad,Pcbnew,5.1.12-84ad8e8a86~92~ubuntu20.04.1*
G04 #@! TF.CreationDate,2022-05-17T18:41:04-04:00*
G04 #@! TF.ProjectId,fm1608-to-6116,666d3136-3038-42d7-946f-2d363131362e,1.0*
G04 #@! TF.SameCoordinates,Original*
G04 #@! TF.FileFunction,Legend,Top*
G04 #@! TF.FilePolarity,Positive*
%FSLAX46Y46*%
G04 Gerber Fmt 4.6, Leading zero omitted, Abs format (unit mm)*
G04 Created by KiCad (PCBNEW 5.1.12-84ad8e8a86~92~ubuntu20.04.1) date 2022-05-17 18:41:04*
%MOMM*%
%LPD*%
G01*
G04 APERTURE LIST*
%ADD10C,0.254000*%
%ADD11C,0.300000*%
%ADD12C,0.120000*%
%ADD13O,1.600000X1.600000*%
%ADD14R,1.600000X1.600000*%
G04 APERTURE END LIST*
D10*
X135227785Y-79136119D02*
X134647214Y-79136119D01*
X134937500Y-79136119D02*
X134937500Y-78120119D01*
X134840738Y-78265261D01*
X134743976Y-78362023D01*
X134647214Y-78410404D01*
X132179785Y-74183119D02*
X131599214Y-74183119D01*
X131889500Y-74183119D02*
X131889500Y-73167119D01*
X131792738Y-73312261D01*
X131695976Y-73409023D01*
X131599214Y-73457404D01*
D11*
X141204071Y-95745571D02*
X139704071Y-95745571D01*
X140775500Y-95245571D01*
X139704071Y-94745571D01*
X141204071Y-94745571D01*
X141204071Y-94031285D02*
X139704071Y-94031285D01*
X139704071Y-93674142D01*
X139775500Y-93459857D01*
X139918357Y-93317000D01*
X140061214Y-93245571D01*
X140346928Y-93174142D01*
X140561214Y-93174142D01*
X140846928Y-93245571D01*
X140989785Y-93317000D01*
X141132642Y-93459857D01*
X141204071Y-93674142D01*
X141204071Y-94031285D01*
X140204071Y-91531285D02*
X141204071Y-91174142D01*
X140204071Y-90817000D01*
X141204071Y-89459857D02*
X141204071Y-90317000D01*
X141204071Y-89888428D02*
X139704071Y-89888428D01*
X139918357Y-90031285D01*
X140061214Y-90174142D01*
X140132642Y-90317000D01*
X141061214Y-88817000D02*
X141132642Y-88745571D01*
X141204071Y-88817000D01*
X141132642Y-88888428D01*
X141061214Y-88817000D01*
X141204071Y-88817000D01*
X139704071Y-87817000D02*
X139704071Y-87674142D01*
X139775500Y-87531285D01*
X139846928Y-87459857D01*
X139989785Y-87388428D01*
X140275500Y-87317000D01*
X140632642Y-87317000D01*
X140918357Y-87388428D01*
X141061214Y-87459857D01*
X141132642Y-87531285D01*
X141204071Y-87674142D01*
X141204071Y-87817000D01*
X141132642Y-87959857D01*
X141061214Y-88031285D01*
X140918357Y-88102714D01*
X140632642Y-88174142D01*
X140275500Y-88174142D01*
X139989785Y-88102714D01*
X139846928Y-88031285D01*
X139775500Y-87959857D01*
X139704071Y-87817000D01*
X137497357Y-99729642D02*
X137497357Y-100229642D01*
X138283071Y-100229642D02*
X136783071Y-100229642D01*
X136783071Y-99515357D01*
X138283071Y-98943928D02*
X136783071Y-98943928D01*
X137854500Y-98443928D01*
X136783071Y-97943928D01*
X138283071Y-97943928D01*
X138283071Y-96443928D02*
X138283071Y-97301071D01*
X138283071Y-96872500D02*
X136783071Y-96872500D01*
X136997357Y-97015357D01*
X137140214Y-97158214D01*
X137211642Y-97301071D01*
X136783071Y-95158214D02*
X136783071Y-95443928D01*
X136854500Y-95586785D01*
X136925928Y-95658214D01*
X137140214Y-95801071D01*
X137425928Y-95872500D01*
X137997357Y-95872500D01*
X138140214Y-95801071D01*
X138211642Y-95729642D01*
X138283071Y-95586785D01*
X138283071Y-95301071D01*
X138211642Y-95158214D01*
X138140214Y-95086785D01*
X137997357Y-95015357D01*
X137640214Y-95015357D01*
X137497357Y-95086785D01*
X137425928Y-95158214D01*
X137354500Y-95301071D01*
X137354500Y-95586785D01*
X137425928Y-95729642D01*
X137497357Y-95801071D01*
X137640214Y-95872500D01*
X136783071Y-94086785D02*
X136783071Y-93943928D01*
X136854500Y-93801071D01*
X136925928Y-93729642D01*
X137068785Y-93658214D01*
X137354500Y-93586785D01*
X137711642Y-93586785D01*
X137997357Y-93658214D01*
X138140214Y-93729642D01*
X138211642Y-93801071D01*
X138283071Y-93943928D01*
X138283071Y-94086785D01*
X138211642Y-94229642D01*
X138140214Y-94301071D01*
X137997357Y-94372500D01*
X137711642Y-94443928D01*
X137354500Y-94443928D01*
X137068785Y-94372500D01*
X136925928Y-94301071D01*
X136854500Y-94229642D01*
X136783071Y-94086785D01*
X137425928Y-92729642D02*
X137354500Y-92872500D01*
X137283071Y-92943928D01*
X137140214Y-93015357D01*
X137068785Y-93015357D01*
X136925928Y-92943928D01*
X136854500Y-92872500D01*
X136783071Y-92729642D01*
X136783071Y-92443928D01*
X136854500Y-92301071D01*
X136925928Y-92229642D01*
X137068785Y-92158214D01*
X137140214Y-92158214D01*
X137283071Y-92229642D01*
X137354500Y-92301071D01*
X137425928Y-92443928D01*
X137425928Y-92729642D01*
X137497357Y-92872500D01*
X137568785Y-92943928D01*
X137711642Y-93015357D01*
X137997357Y-93015357D01*
X138140214Y-92943928D01*
X138211642Y-92872500D01*
X138283071Y-92729642D01*
X138283071Y-92443928D01*
X138211642Y-92301071D01*
X138140214Y-92229642D01*
X137997357Y-92158214D01*
X137711642Y-92158214D01*
X137568785Y-92229642D01*
X137497357Y-92301071D01*
X137425928Y-92443928D01*
X137283071Y-90586785D02*
X137283071Y-90015357D01*
X136783071Y-90372500D02*
X138068785Y-90372500D01*
X138211642Y-90301071D01*
X138283071Y-90158214D01*
X138283071Y-90015357D01*
X138283071Y-89301071D02*
X138211642Y-89443928D01*
X138140214Y-89515357D01*
X137997357Y-89586785D01*
X137568785Y-89586785D01*
X137425928Y-89515357D01*
X137354500Y-89443928D01*
X137283071Y-89301071D01*
X137283071Y-89086785D01*
X137354500Y-88943928D01*
X137425928Y-88872500D01*
X137568785Y-88801071D01*
X137997357Y-88801071D01*
X138140214Y-88872500D01*
X138211642Y-88943928D01*
X138283071Y-89086785D01*
X138283071Y-89301071D01*
X136783071Y-86372500D02*
X136783071Y-86658214D01*
X136854500Y-86801071D01*
X136925928Y-86872500D01*
X137140214Y-87015357D01*
X137425928Y-87086785D01*
X137997357Y-87086785D01*
X138140214Y-87015357D01*
X138211642Y-86943928D01*
X138283071Y-86801071D01*
X138283071Y-86515357D01*
X138211642Y-86372500D01*
X138140214Y-86301071D01*
X137997357Y-86229642D01*
X137640214Y-86229642D01*
X137497357Y-86301071D01*
X137425928Y-86372500D01*
X137354500Y-86515357D01*
X137354500Y-86801071D01*
X137425928Y-86943928D01*
X137497357Y-87015357D01*
X137640214Y-87086785D01*
X138283071Y-84801071D02*
X138283071Y-85658214D01*
X138283071Y-85229642D02*
X136783071Y-85229642D01*
X136997357Y-85372500D01*
X137140214Y-85515357D01*
X137211642Y-85658214D01*
X138283071Y-83372500D02*
X138283071Y-84229642D01*
X138283071Y-83801071D02*
X136783071Y-83801071D01*
X136997357Y-83943928D01*
X137140214Y-84086785D01*
X137211642Y-84229642D01*
X136783071Y-82086785D02*
X136783071Y-82372500D01*
X136854500Y-82515357D01*
X136925928Y-82586785D01*
X137140214Y-82729642D01*
X137425928Y-82801071D01*
X137997357Y-82801071D01*
X138140214Y-82729642D01*
X138211642Y-82658214D01*
X138283071Y-82515357D01*
X138283071Y-82229642D01*
X138211642Y-82086785D01*
X138140214Y-82015357D01*
X137997357Y-81943928D01*
X137640214Y-81943928D01*
X137497357Y-82015357D01*
X137425928Y-82086785D01*
X137354500Y-82229642D01*
X137354500Y-82515357D01*
X137425928Y-82658214D01*
X137497357Y-82729642D01*
X137640214Y-82801071D01*
D12*
X147981936Y-73950500D02*
X148436064Y-73950500D01*
X147981936Y-72480500D02*
X148436064Y-72480500D01*
X136160000Y-72266500D02*
X130700000Y-72266500D01*
X130700000Y-72266500D02*
X130700000Y-107946500D01*
X130700000Y-107946500D02*
X143620000Y-107946500D01*
X143620000Y-107946500D02*
X143620000Y-72266500D01*
X143620000Y-72266500D02*
X138160000Y-72266500D01*
X138160000Y-72266500D02*
G75*
G02*
X136160000Y-72266500I-1000000J0D01*
G01*
X140287500Y-74933500D02*
X134827500Y-74933500D01*
X134827500Y-74933500D02*
X134827500Y-105533500D01*
X134827500Y-105533500D02*
X147747500Y-105533500D01*
X147747500Y-105533500D02*
X147747500Y-74933500D01*
X147747500Y-74933500D02*
X142287500Y-74933500D01*
X142287500Y-74933500D02*
G75*
G02*
X140287500Y-74933500I-1000000J0D01*
G01*
%LPC*%
G36*
G01*
X148609000Y-73665501D02*
X148609000Y-72765499D01*
G75*
G02*
X148858999Y-72515500I249999J0D01*
G01*
X149559001Y-72515500D01*
G75*
G02*
X149809000Y-72765499I0J-249999D01*
G01*
X149809000Y-73665501D01*
G75*
G02*
X149559001Y-73915500I-249999J0D01*
G01*
X148858999Y-73915500D01*
G75*
G02*
X148609000Y-73665501I0J249999D01*
G01*
G37*
G36*
G01*
X146609000Y-73665501D02*
X146609000Y-72765499D01*
G75*
G02*
X146858999Y-72515500I249999J0D01*
G01*
X147559001Y-72515500D01*
G75*
G02*
X147809000Y-72765499I0J-249999D01*
G01*
X147809000Y-73665501D01*
G75*
G02*
X147559001Y-73915500I-249999J0D01*
G01*
X146858999Y-73915500D01*
G75*
G02*
X146609000Y-73665501I0J249999D01*
G01*
G37*
D13*
X144780000Y-73596500D03*
X129540000Y-106616500D03*
X144780000Y-76136500D03*
X129540000Y-104076500D03*
X144780000Y-78676500D03*
X129540000Y-101536500D03*
X144780000Y-81216500D03*
X129540000Y-98996500D03*
X144780000Y-83756500D03*
X129540000Y-96456500D03*
X144780000Y-86296500D03*
X129540000Y-93916500D03*
X144780000Y-88836500D03*
X129540000Y-91376500D03*
X144780000Y-91376500D03*
X129540000Y-88836500D03*
X144780000Y-93916500D03*
X129540000Y-86296500D03*
X144780000Y-96456500D03*
X129540000Y-83756500D03*
X144780000Y-98996500D03*
X129540000Y-81216500D03*
X144780000Y-101536500D03*
X129540000Y-78676500D03*
X144780000Y-104076500D03*
X129540000Y-76136500D03*
X144780000Y-106616500D03*
D14*
X129540000Y-73596500D03*
D13*
X148907500Y-76263500D03*
X133667500Y-104203500D03*
X148907500Y-78803500D03*
X133667500Y-101663500D03*
X148907500Y-81343500D03*
X133667500Y-99123500D03*
X148907500Y-83883500D03*
X133667500Y-96583500D03*
X148907500Y-86423500D03*
X133667500Y-94043500D03*
X148907500Y-88963500D03*
X133667500Y-91503500D03*
X148907500Y-91503500D03*
X133667500Y-88963500D03*
X148907500Y-94043500D03*
X133667500Y-86423500D03*
X148907500Y-96583500D03*
X133667500Y-83883500D03*
X148907500Y-99123500D03*
X133667500Y-81343500D03*
X148907500Y-101663500D03*
X133667500Y-78803500D03*
X148907500Y-104203500D03*
D14*
X133667500Y-76263500D03*
M02*
