%FSLAX45Y45*%
G04 Gerber Fmt 4.5, Leading zero omitted, Abs format (unit mm)*
G04 Created by KiCad (PCBNEW 5.1.12-84ad8e8a86~92~ubuntu20.04.1) date 2022-05-17 18:42:12*
%MOMM*%
%LPD*%
G01*
G04 APERTURE LIST*
%TA.AperFunction,Profile*%
%ADD10C,0.050000*%
%TD*%
%ADD11C,0.200000*%
%ADD12C,0.300000*%
G04 APERTURE END LIST*
D10*
X12776200Y-10896600D02*
X12776200Y-7137400D01*
X15087600Y-10896600D02*
X12776200Y-10896600D01*
X15087600Y-7137400D02*
X15087600Y-10896600D01*
X12776200Y-7137400D02*
X15087600Y-7137400D01*
D11*
X12914000Y-7319650D02*
X12994000Y-7399650D01*
X12994000Y-7319650D02*
X12914000Y-7399650D01*
X12914000Y-7573650D02*
X12994000Y-7653650D01*
X12994000Y-7573650D02*
X12914000Y-7653650D01*
X12914000Y-7827650D02*
X12994000Y-7907650D01*
X12994000Y-7827650D02*
X12914000Y-7907650D01*
X12914000Y-8081650D02*
X12994000Y-8161650D01*
X12994000Y-8081650D02*
X12914000Y-8161650D01*
X12914000Y-8335650D02*
X12994000Y-8415650D01*
X12994000Y-8335650D02*
X12914000Y-8415650D01*
X12914000Y-8589650D02*
X12994000Y-8669650D01*
X12994000Y-8589650D02*
X12914000Y-8669650D01*
X12914000Y-8843650D02*
X12994000Y-8923650D01*
X12994000Y-8843650D02*
X12914000Y-8923650D01*
X12914000Y-9097650D02*
X12994000Y-9177650D01*
X12994000Y-9097650D02*
X12914000Y-9177650D01*
X12914000Y-9351650D02*
X12994000Y-9431650D01*
X12994000Y-9351650D02*
X12914000Y-9431650D01*
X12914000Y-9605650D02*
X12994000Y-9685650D01*
X12994000Y-9605650D02*
X12914000Y-9685650D01*
X12914000Y-9859650D02*
X12994000Y-9939650D01*
X12994000Y-9859650D02*
X12914000Y-9939650D01*
X12914000Y-10113650D02*
X12994000Y-10193650D01*
X12994000Y-10113650D02*
X12914000Y-10193650D01*
X12914000Y-10367650D02*
X12994000Y-10447650D01*
X12994000Y-10367650D02*
X12914000Y-10447650D01*
X12914000Y-10621650D02*
X12994000Y-10701650D01*
X12994000Y-10621650D02*
X12914000Y-10701650D01*
X13326750Y-7586350D02*
X13406750Y-7666350D01*
X13406750Y-7586350D02*
X13326750Y-7666350D01*
X13326750Y-7840350D02*
X13406750Y-7920350D01*
X13406750Y-7840350D02*
X13326750Y-7920350D01*
X13326750Y-8094350D02*
X13406750Y-8174350D01*
X13406750Y-8094350D02*
X13326750Y-8174350D01*
X13326750Y-8348350D02*
X13406750Y-8428350D01*
X13406750Y-8348350D02*
X13326750Y-8428350D01*
X13326750Y-8602350D02*
X13406750Y-8682350D01*
X13406750Y-8602350D02*
X13326750Y-8682350D01*
X13326750Y-8856350D02*
X13406750Y-8936350D01*
X13406750Y-8856350D02*
X13326750Y-8936350D01*
X13326750Y-9110350D02*
X13406750Y-9190350D01*
X13406750Y-9110350D02*
X13326750Y-9190350D01*
X13326750Y-9364350D02*
X13406750Y-9444350D01*
X13406750Y-9364350D02*
X13326750Y-9444350D01*
X13326750Y-9618350D02*
X13406750Y-9698350D01*
X13406750Y-9618350D02*
X13326750Y-9698350D01*
X13326750Y-9872350D02*
X13406750Y-9952350D01*
X13406750Y-9872350D02*
X13326750Y-9952350D01*
X13326750Y-10126350D02*
X13406750Y-10206350D01*
X13406750Y-10126350D02*
X13326750Y-10206350D01*
X13326750Y-10380350D02*
X13406750Y-10460350D01*
X13406750Y-10380350D02*
X13326750Y-10460350D01*
X14438000Y-7319650D02*
X14518000Y-7399650D01*
X14518000Y-7319650D02*
X14438000Y-7399650D01*
X14438000Y-7573650D02*
X14518000Y-7653650D01*
X14518000Y-7573650D02*
X14438000Y-7653650D01*
X14438000Y-7827650D02*
X14518000Y-7907650D01*
X14518000Y-7827650D02*
X14438000Y-7907650D01*
X14438000Y-8081650D02*
X14518000Y-8161650D01*
X14518000Y-8081650D02*
X14438000Y-8161650D01*
X14438000Y-8335650D02*
X14518000Y-8415650D01*
X14518000Y-8335650D02*
X14438000Y-8415650D01*
X14438000Y-8589650D02*
X14518000Y-8669650D01*
X14518000Y-8589650D02*
X14438000Y-8669650D01*
X14438000Y-8843650D02*
X14518000Y-8923650D01*
X14518000Y-8843650D02*
X14438000Y-8923650D01*
X14438000Y-9097650D02*
X14518000Y-9177650D01*
X14518000Y-9097650D02*
X14438000Y-9177650D01*
X14438000Y-9351650D02*
X14518000Y-9431650D01*
X14518000Y-9351650D02*
X14438000Y-9431650D01*
X14438000Y-9605650D02*
X14518000Y-9685650D01*
X14518000Y-9605650D02*
X14438000Y-9685650D01*
X14438000Y-9859650D02*
X14518000Y-9939650D01*
X14518000Y-9859650D02*
X14438000Y-9939650D01*
X14438000Y-10113650D02*
X14518000Y-10193650D01*
X14518000Y-10113650D02*
X14438000Y-10193650D01*
X14438000Y-10367650D02*
X14518000Y-10447650D01*
X14518000Y-10367650D02*
X14438000Y-10447650D01*
X14438000Y-10621650D02*
X14518000Y-10701650D01*
X14518000Y-10621650D02*
X14438000Y-10701650D01*
X14850750Y-7586350D02*
X14930750Y-7666350D01*
X14930750Y-7586350D02*
X14850750Y-7666350D01*
X14850750Y-7840350D02*
X14930750Y-7920350D01*
X14930750Y-7840350D02*
X14850750Y-7920350D01*
X14850750Y-8094350D02*
X14930750Y-8174350D01*
X14930750Y-8094350D02*
X14850750Y-8174350D01*
X14850750Y-8348350D02*
X14930750Y-8428350D01*
X14930750Y-8348350D02*
X14850750Y-8428350D01*
X14850750Y-8602350D02*
X14930750Y-8682350D01*
X14930750Y-8602350D02*
X14850750Y-8682350D01*
X14850750Y-8856350D02*
X14930750Y-8936350D01*
X14930750Y-8856350D02*
X14850750Y-8936350D01*
X14850750Y-9110350D02*
X14930750Y-9190350D01*
X14930750Y-9110350D02*
X14850750Y-9190350D01*
X14850750Y-9364350D02*
X14930750Y-9444350D01*
X14930750Y-9364350D02*
X14850750Y-9444350D01*
X14850750Y-9618350D02*
X14930750Y-9698350D01*
X14930750Y-9618350D02*
X14850750Y-9698350D01*
X14850750Y-9872350D02*
X14930750Y-9952350D01*
X14930750Y-9872350D02*
X14850750Y-9952350D01*
X14850750Y-10126350D02*
X14930750Y-10206350D01*
X14930750Y-10126350D02*
X14850750Y-10206350D01*
X14850750Y-10380350D02*
X14930750Y-10460350D01*
X14930750Y-10380350D02*
X14850750Y-10460350D01*
D12*
X13060128Y-11364814D02*
X13060128Y-11064814D01*
X13131557Y-11064814D01*
X13174414Y-11079100D01*
X13202986Y-11107672D01*
X13217271Y-11136243D01*
X13231557Y-11193386D01*
X13231557Y-11236243D01*
X13217271Y-11293386D01*
X13202986Y-11321957D01*
X13174414Y-11350529D01*
X13131557Y-11364814D01*
X13060128Y-11364814D01*
X13360128Y-11364814D02*
X13360128Y-11164814D01*
X13360128Y-11221957D02*
X13374414Y-11193386D01*
X13388700Y-11179100D01*
X13417271Y-11164814D01*
X13445843Y-11164814D01*
X13545843Y-11364814D02*
X13545843Y-11164814D01*
X13545843Y-11064814D02*
X13531557Y-11079100D01*
X13545843Y-11093386D01*
X13560128Y-11079100D01*
X13545843Y-11064814D01*
X13545843Y-11093386D01*
X13731557Y-11364814D02*
X13702986Y-11350529D01*
X13688700Y-11321957D01*
X13688700Y-11064814D01*
X13888700Y-11364814D02*
X13860128Y-11350529D01*
X13845843Y-11321957D01*
X13845843Y-11064814D01*
X14231557Y-11364814D02*
X14231557Y-11064814D01*
X14331557Y-11279100D01*
X14431557Y-11064814D01*
X14431557Y-11364814D01*
X14702986Y-11364814D02*
X14702986Y-11207671D01*
X14688700Y-11179100D01*
X14660128Y-11164814D01*
X14602986Y-11164814D01*
X14574414Y-11179100D01*
X14702986Y-11350529D02*
X14674414Y-11364814D01*
X14602986Y-11364814D01*
X14574414Y-11350529D01*
X14560128Y-11321957D01*
X14560128Y-11293386D01*
X14574414Y-11264814D01*
X14602986Y-11250529D01*
X14674414Y-11250529D01*
X14702986Y-11236243D01*
X14845843Y-11164814D02*
X14845843Y-11464814D01*
X14845843Y-11179100D02*
X14874414Y-11164814D01*
X14931557Y-11164814D01*
X14960128Y-11179100D01*
X14974414Y-11193386D01*
X14988700Y-11221957D01*
X14988700Y-11307671D01*
X14974414Y-11336243D01*
X14960128Y-11350529D01*
X14931557Y-11364814D01*
X14874414Y-11364814D01*
X14845843Y-11350529D01*
X15117271Y-11336243D02*
X15131557Y-11350529D01*
X15117271Y-11364814D01*
X15102986Y-11350529D01*
X15117271Y-11336243D01*
X15117271Y-11364814D01*
X15117271Y-11179100D02*
X15131557Y-11193386D01*
X15117271Y-11207671D01*
X15102986Y-11193386D01*
X15117271Y-11179100D01*
X15117271Y-11207671D01*
X12693700Y-11819100D02*
X12773700Y-11899100D01*
X12773700Y-11819100D02*
X12693700Y-11899100D01*
X13117271Y-11694814D02*
X13145843Y-11694814D01*
X13174414Y-11709100D01*
X13188700Y-11723386D01*
X13202986Y-11751957D01*
X13217271Y-11809100D01*
X13217271Y-11880529D01*
X13202986Y-11937671D01*
X13188700Y-11966243D01*
X13174414Y-11980529D01*
X13145843Y-11994814D01*
X13117271Y-11994814D01*
X13088700Y-11980529D01*
X13074414Y-11966243D01*
X13060128Y-11937671D01*
X13045843Y-11880529D01*
X13045843Y-11809100D01*
X13060128Y-11751957D01*
X13074414Y-11723386D01*
X13088700Y-11709100D01*
X13117271Y-11694814D01*
X13345843Y-11966243D02*
X13360128Y-11980529D01*
X13345843Y-11994814D01*
X13331557Y-11980529D01*
X13345843Y-11966243D01*
X13345843Y-11994814D01*
X13531557Y-11823386D02*
X13502986Y-11809100D01*
X13488700Y-11794814D01*
X13474414Y-11766243D01*
X13474414Y-11751957D01*
X13488700Y-11723386D01*
X13502986Y-11709100D01*
X13531557Y-11694814D01*
X13588700Y-11694814D01*
X13617271Y-11709100D01*
X13631557Y-11723386D01*
X13645843Y-11751957D01*
X13645843Y-11766243D01*
X13631557Y-11794814D01*
X13617271Y-11809100D01*
X13588700Y-11823386D01*
X13531557Y-11823386D01*
X13502986Y-11837671D01*
X13488700Y-11851957D01*
X13474414Y-11880529D01*
X13474414Y-11937671D01*
X13488700Y-11966243D01*
X13502986Y-11980529D01*
X13531557Y-11994814D01*
X13588700Y-11994814D01*
X13617271Y-11980529D01*
X13631557Y-11966243D01*
X13645843Y-11937671D01*
X13645843Y-11880529D01*
X13631557Y-11851957D01*
X13617271Y-11837671D01*
X13588700Y-11823386D01*
X13831557Y-11694814D02*
X13860128Y-11694814D01*
X13888700Y-11709100D01*
X13902986Y-11723386D01*
X13917271Y-11751957D01*
X13931557Y-11809100D01*
X13931557Y-11880529D01*
X13917271Y-11937671D01*
X13902986Y-11966243D01*
X13888700Y-11980529D01*
X13860128Y-11994814D01*
X13831557Y-11994814D01*
X13802986Y-11980529D01*
X13788700Y-11966243D01*
X13774414Y-11937671D01*
X13760128Y-11880529D01*
X13760128Y-11809100D01*
X13774414Y-11751957D01*
X13788700Y-11723386D01*
X13802986Y-11709100D01*
X13831557Y-11694814D01*
X14117271Y-11694814D02*
X14145843Y-11694814D01*
X14174414Y-11709100D01*
X14188700Y-11723386D01*
X14202986Y-11751957D01*
X14217271Y-11809100D01*
X14217271Y-11880529D01*
X14202986Y-11937671D01*
X14188700Y-11966243D01*
X14174414Y-11980529D01*
X14145843Y-11994814D01*
X14117271Y-11994814D01*
X14088700Y-11980529D01*
X14074414Y-11966243D01*
X14060128Y-11937671D01*
X14045843Y-11880529D01*
X14045843Y-11809100D01*
X14060128Y-11751957D01*
X14074414Y-11723386D01*
X14088700Y-11709100D01*
X14117271Y-11694814D01*
X14345843Y-11994814D02*
X14345843Y-11794814D01*
X14345843Y-11823386D02*
X14360128Y-11809100D01*
X14388700Y-11794814D01*
X14431557Y-11794814D01*
X14460128Y-11809100D01*
X14474414Y-11837671D01*
X14474414Y-11994814D01*
X14474414Y-11837671D02*
X14488700Y-11809100D01*
X14517271Y-11794814D01*
X14560128Y-11794814D01*
X14588700Y-11809100D01*
X14602986Y-11837671D01*
X14602986Y-11994814D01*
X14745843Y-11994814D02*
X14745843Y-11794814D01*
X14745843Y-11823386D02*
X14760128Y-11809100D01*
X14788700Y-11794814D01*
X14831557Y-11794814D01*
X14860128Y-11809100D01*
X14874414Y-11837671D01*
X14874414Y-11994814D01*
X14874414Y-11837671D02*
X14888700Y-11809100D01*
X14917271Y-11794814D01*
X14960128Y-11794814D01*
X14988700Y-11809100D01*
X15002986Y-11837671D01*
X15002986Y-11994814D01*
X15588700Y-11680529D02*
X15331557Y-12066243D01*
X15974414Y-11694814D02*
X16002986Y-11694814D01*
X16031557Y-11709100D01*
X16045843Y-11723386D01*
X16060128Y-11751957D01*
X16074414Y-11809100D01*
X16074414Y-11880529D01*
X16060128Y-11937671D01*
X16045843Y-11966243D01*
X16031557Y-11980529D01*
X16002986Y-11994814D01*
X15974414Y-11994814D01*
X15945843Y-11980529D01*
X15931557Y-11966243D01*
X15917271Y-11937671D01*
X15902986Y-11880529D01*
X15902986Y-11809100D01*
X15917271Y-11751957D01*
X15931557Y-11723386D01*
X15945843Y-11709100D01*
X15974414Y-11694814D01*
X16202986Y-11966243D02*
X16217271Y-11980529D01*
X16202986Y-11994814D01*
X16188700Y-11980529D01*
X16202986Y-11966243D01*
X16202986Y-11994814D01*
X16402986Y-11694814D02*
X16431557Y-11694814D01*
X16460128Y-11709100D01*
X16474414Y-11723386D01*
X16488700Y-11751957D01*
X16502986Y-11809100D01*
X16502986Y-11880529D01*
X16488700Y-11937671D01*
X16474414Y-11966243D01*
X16460128Y-11980529D01*
X16431557Y-11994814D01*
X16402986Y-11994814D01*
X16374414Y-11980529D01*
X16360128Y-11966243D01*
X16345843Y-11937671D01*
X16331557Y-11880529D01*
X16331557Y-11809100D01*
X16345843Y-11751957D01*
X16360128Y-11723386D01*
X16374414Y-11709100D01*
X16402986Y-11694814D01*
X16602986Y-11694814D02*
X16788700Y-11694814D01*
X16688700Y-11809100D01*
X16731557Y-11809100D01*
X16760128Y-11823386D01*
X16774414Y-11837671D01*
X16788700Y-11866243D01*
X16788700Y-11937671D01*
X16774414Y-11966243D01*
X16760128Y-11980529D01*
X16731557Y-11994814D01*
X16645843Y-11994814D01*
X16617271Y-11980529D01*
X16602986Y-11966243D01*
X17074414Y-11994814D02*
X16902986Y-11994814D01*
X16988700Y-11994814D02*
X16988700Y-11694814D01*
X16960128Y-11737671D01*
X16931557Y-11766243D01*
X16902986Y-11780529D01*
X17345843Y-11694814D02*
X17202986Y-11694814D01*
X17188700Y-11837671D01*
X17202986Y-11823386D01*
X17231557Y-11809100D01*
X17302986Y-11809100D01*
X17331557Y-11823386D01*
X17345843Y-11837671D01*
X17360128Y-11866243D01*
X17360128Y-11937671D01*
X17345843Y-11966243D01*
X17331557Y-11980529D01*
X17302986Y-11994814D01*
X17231557Y-11994814D01*
X17202986Y-11980529D01*
X17188700Y-11966243D01*
X17474414Y-11694814D02*
X17474414Y-11751957D01*
X17588700Y-11694814D02*
X17588700Y-11751957D01*
X18031557Y-12109100D02*
X18017271Y-12094814D01*
X17988700Y-12051957D01*
X17974414Y-12023386D01*
X17960128Y-11980529D01*
X17945843Y-11909100D01*
X17945843Y-11851957D01*
X17960128Y-11780529D01*
X17974414Y-11737671D01*
X17988700Y-11709100D01*
X18017271Y-11666243D01*
X18031557Y-11651957D01*
X18288700Y-11694814D02*
X18145843Y-11694814D01*
X18131557Y-11837671D01*
X18145843Y-11823386D01*
X18174414Y-11809100D01*
X18245843Y-11809100D01*
X18274414Y-11823386D01*
X18288700Y-11837671D01*
X18302986Y-11866243D01*
X18302986Y-11937671D01*
X18288700Y-11966243D01*
X18274414Y-11980529D01*
X18245843Y-11994814D01*
X18174414Y-11994814D01*
X18145843Y-11980529D01*
X18131557Y-11966243D01*
X18417271Y-11723386D02*
X18431557Y-11709100D01*
X18460128Y-11694814D01*
X18531557Y-11694814D01*
X18560128Y-11709100D01*
X18574414Y-11723386D01*
X18588700Y-11751957D01*
X18588700Y-11780529D01*
X18574414Y-11823386D01*
X18402986Y-11994814D01*
X18588700Y-11994814D01*
X18945843Y-11994814D02*
X18945843Y-11694814D01*
X19074414Y-11994814D02*
X19074414Y-11837671D01*
X19060128Y-11809100D01*
X19031557Y-11794814D01*
X18988700Y-11794814D01*
X18960128Y-11809100D01*
X18945843Y-11823386D01*
X19260128Y-11994814D02*
X19231557Y-11980529D01*
X19217271Y-11966243D01*
X19202986Y-11937671D01*
X19202986Y-11851957D01*
X19217271Y-11823386D01*
X19231557Y-11809100D01*
X19260128Y-11794814D01*
X19302986Y-11794814D01*
X19331557Y-11809100D01*
X19345843Y-11823386D01*
X19360128Y-11851957D01*
X19360128Y-11937671D01*
X19345843Y-11966243D01*
X19331557Y-11980529D01*
X19302986Y-11994814D01*
X19260128Y-11994814D01*
X19531557Y-11994814D02*
X19502986Y-11980529D01*
X19488700Y-11951957D01*
X19488700Y-11694814D01*
X19760128Y-11980529D02*
X19731557Y-11994814D01*
X19674414Y-11994814D01*
X19645843Y-11980529D01*
X19631557Y-11951957D01*
X19631557Y-11837671D01*
X19645843Y-11809100D01*
X19674414Y-11794814D01*
X19731557Y-11794814D01*
X19760128Y-11809100D01*
X19774414Y-11837671D01*
X19774414Y-11866243D01*
X19631557Y-11894814D01*
X19888700Y-11980529D02*
X19917271Y-11994814D01*
X19974414Y-11994814D01*
X20002986Y-11980529D01*
X20017271Y-11951957D01*
X20017271Y-11937671D01*
X20002986Y-11909100D01*
X19974414Y-11894814D01*
X19931557Y-11894814D01*
X19902986Y-11880529D01*
X19888700Y-11851957D01*
X19888700Y-11837671D01*
X19902986Y-11809100D01*
X19931557Y-11794814D01*
X19974414Y-11794814D01*
X20002986Y-11809100D01*
X20117271Y-12109100D02*
X20131557Y-12094814D01*
X20160128Y-12051957D01*
X20174414Y-12023386D01*
X20188700Y-11980529D01*
X20202986Y-11909100D01*
X20202986Y-11851957D01*
X20188700Y-11780529D01*
X20174414Y-11737671D01*
X20160128Y-11709100D01*
X20131557Y-11666243D01*
X20117271Y-11651957D01*
M02*
