M48
; DRILL file {KiCad 5.1.12-84ad8e8a86~92~ubuntu20.04.1} date Tue 17 May 2022 06:41:42 PM
; FORMAT={-:-/ absolute / metric / decimal}
; #@! TF.CreationDate,2022-05-17T18:41:42-04:00
; #@! TF.GenerationSoftware,Kicad,Pcbnew,5.1.12-84ad8e8a86~92~ubuntu20.04.1
; #@! TF.FileFunction,Plated,1,2,PTH
FMAT,2
METRIC
T1C0.800
%
G90
G05
T1
X129.54Y-73.596
X129.54Y-76.136
X129.54Y-78.676
X129.54Y-81.216
X129.54Y-83.757
X129.54Y-86.296
X129.54Y-88.837
X129.54Y-91.376
X129.54Y-93.916
X129.54Y-96.456
X129.54Y-98.996
X129.54Y-101.536
X129.54Y-104.076
X129.54Y-106.617
X133.667Y-76.263
X133.667Y-78.803
X133.667Y-81.343
X133.667Y-83.883
X133.667Y-86.423
X133.667Y-88.963
X133.667Y-91.504
X133.667Y-94.043
X133.667Y-96.584
X133.667Y-99.123
X133.667Y-101.663
X133.667Y-104.203
X144.78Y-73.596
X144.78Y-76.136
X144.78Y-78.676
X144.78Y-81.216
X144.78Y-83.757
X144.78Y-86.296
X144.78Y-88.837
X144.78Y-91.376
X144.78Y-93.916
X144.78Y-96.456
X144.78Y-98.996
X144.78Y-101.536
X144.78Y-104.076
X144.78Y-106.617
X148.907Y-76.263
X148.907Y-78.803
X148.907Y-81.343
X148.907Y-83.883
X148.907Y-86.423
X148.907Y-88.963
X148.907Y-91.504
X148.907Y-94.043
X148.907Y-96.584
X148.907Y-99.123
X148.907Y-101.663
X148.907Y-104.203
T0
M30
